# 3ds Max Wavefront OBJ Exporter v0.99 - (c)2007 guruware
# File Created: 06.01.2025 16:22:40

#
# object Lever
#

v  -18.0185 16.4927 33.9322
v  21.9815 16.4927 33.9322
v  21.9815 16.4927 -36.0678
v  -18.0185 16.4927 -36.0678
v  -18.0185 0.0000 33.9322
v  21.9815 0.0000 33.9322
v  21.9815 0.0000 -36.0678
v  -18.0185 0.0000 -36.0678
v  -8.0185 53.7439 44.2454
v  -8.0185 0.3893 -1.0678
v  11.9815 0.3893 -1.0678
v  11.9815 53.7439 44.2454
v  -8.0185 66.6906 29.0012
v  11.9815 66.6906 29.0012
v  11.9815 13.3359 -16.3119
v  -8.0185 13.3359 -16.3119
# 16 vertices

vn 0.0000 1.0000 -0.0000
vn 0.0000 0.0000 1.0000
vn 1.0000 0.0000 -0.0000
vn 0.0000 0.0000 -1.0000
vn -1.0000 0.0000 -0.0000
vn 0.0000 -0.6473 0.7622
vn 0.0000 0.6473 -0.7622
vn 0.0000 0.7622 0.6473
# 8 vertex normals

vt 0.1600 0.5118 0.0000
vt 0.8337 0.4949 0.0000
# 2 texture coords

o Lever
g Lever
f 1/1/1 2/1/1 3/1/1 
f 3/1/1 4/1/1 1/1/1 
f 5/1/2 6/1/2 2/1/2 
f 2/1/2 1/1/2 5/1/2 
f 6/1/3 7/1/3 3/1/3 
f 3/1/3 2/1/3 6/1/3 
f 7/1/4 8/1/4 4/1/4 
f 4/1/4 3/1/4 7/1/4 
f 8/1/5 5/1/5 1/1/5 
f 1/1/5 4/1/5 8/1/5 
f 9/2/6 10/2/6 11/2/6 
f 11/2/6 12/2/6 9/2/6 
f 13/2/7 14/2/7 15/2/7 
f 15/2/7 16/2/7 13/2/7 
f 9/2/8 12/2/8 14/2/8 
f 14/2/8 13/2/8 9/2/8 
f 12/2/3 11/2/3 15/2/3 
f 15/2/3 14/2/3 12/2/3 
f 10/2/5 9/2/5 13/2/5 
f 13/2/5 16/2/5 10/2/5 
# 20 faces

