# 3ds Max Wavefront OBJ Exporter v0.99 - (c)2007 guruware
# File Created: 04.01.2025 15:59:01

#
# object Player
#

v  7.3017 0.0000 0.0000
v  6.3235 0.0000 -3.6509
v  14.9530 5.7484 -8.6331
v  17.2663 5.7484 0.0000
v  3.6509 0.0000 -6.3235
v  8.6331 5.7484 -14.9530
v  -0.0000 0.0000 -7.3017
v  -0.0000 5.7484 -17.2663
v  -3.6509 0.0000 -6.3235
v  -8.6331 5.7484 -14.9530
v  -6.3235 0.0000 -3.6509
v  -14.9530 5.7484 -8.6331
v  -7.3017 0.0000 -0.0000
v  -17.2663 5.7484 -0.0000
v  -6.3235 0.0000 3.6509
v  -14.9530 5.7484 8.6331
v  -3.6509 0.0000 6.3235
v  -8.6331 5.7484 14.9530
v  -0.0000 0.0000 7.3017
v  -0.0000 5.7484 17.2663
v  3.6509 0.0000 6.3235
v  8.6331 5.7484 14.9530
v  6.3235 0.0000 3.6509
v  14.9530 5.7484 8.6331
v  19.6977 14.9945 -11.3725
v  22.7449 14.9945 -0.0000
v  11.3725 14.9945 -19.6977
v  -0.0000 14.9945 -22.7449
v  -11.3725 14.9945 -19.6977
v  -19.6977 14.9945 -11.3725
v  -22.7449 14.9945 -0.0000
v  -19.6977 14.9945 11.3725
v  -11.3725 14.9945 19.6977
v  -0.0000 14.9945 22.7449
v  11.3725 14.9945 19.6977
v  19.6977 14.9945 11.3725
v  19.6977 65.0054 -11.3725
v  22.7449 65.0054 -0.0000
v  11.3725 65.0054 -19.6977
v  -0.0000 65.0054 -22.7449
v  -11.3725 65.0054 -19.6977
v  -19.6977 65.0054 -11.3725
v  -22.7449 65.0054 -0.0000
v  -19.6977 65.0054 11.3725
v  -11.3725 65.0054 19.6977
v  -0.0000 65.0054 22.7449
v  11.3725 65.0054 19.6977
v  19.6977 65.0054 11.3725
v  14.9530 74.2515 -8.6331
v  17.2663 74.2515 0.0000
v  8.6331 74.2515 -14.9530
v  -0.0000 74.2515 -17.2663
v  -8.6331 74.2515 -14.9530
v  -14.9530 74.2515 -8.6331
v  -17.2663 74.2515 -0.0000
v  -14.9530 74.2515 8.6331
v  -8.6331 74.2515 14.9530
v  -0.0000 74.2515 17.2663
v  8.6331 74.2515 14.9530
v  14.9530 74.2515 8.6331
v  6.3235 80.0000 -3.6509
v  7.3017 80.0000 0.0000
v  3.6509 80.0000 -6.3235
v  -0.0000 80.0000 -7.3017
v  -3.6509 80.0000 -6.3235
v  -6.3235 80.0000 -3.6509
v  -7.3017 80.0000 -0.0000
v  -6.3235 80.0000 3.6509
v  -3.6509 80.0000 6.3235
v  -0.0000 80.0000 7.3017
v  3.6509 80.0000 6.3235
v  6.3235 80.0000 3.6509
v  0.0000 124.0809 -0.0000
v  -0.0000 120.5371 -13.2256
v  -6.6128 120.5371 -11.4537
v  -11.4537 120.5371 -6.6128
v  -13.2256 120.5371 -0.0000
v  -11.4537 120.5371 6.6128
v  -6.6128 120.5371 11.4537
v  -0.0000 120.5371 13.2256
v  6.6128 120.5371 11.4537
v  11.4537 120.5371 6.6128
v  13.2256 120.5371 0.0000
v  11.4537 120.5371 -6.6128
v  6.6128 120.5371 -11.4537
v  -11.4537 110.8553 -19.8384
v  -0.0000 110.8553 -22.9075
v  -19.8384 110.8553 -11.4537
v  -22.9075 110.8553 -0.0000
v  -19.8384 110.8553 11.4537
v  -11.4537 110.8553 19.8384
v  -0.0000 110.8553 22.9075
v  11.4537 110.8553 19.8384
v  19.8384 110.8553 11.4537
v  22.9075 110.8553 0.0000
v  19.8385 110.8553 -11.4537
v  11.4537 110.8553 -19.8384
v  -13.2256 97.6297 -22.9075
v  -0.0000 97.6297 -26.4513
v  -22.9075 97.6297 -13.2256
v  -26.4513 97.6297 -0.0000
v  -22.9075 97.6297 13.2256
v  -13.2256 97.6297 22.9075
v  -0.0000 97.6297 26.4513
v  13.2256 97.6297 22.9075
v  22.9074 97.6297 13.2256
v  26.4513 97.6297 0.0000
v  22.9075 97.6297 -13.2256
v  13.2256 97.6297 -22.9074
v  -11.4537 84.4040 -19.8384
v  -0.0000 84.4040 -22.9075
v  -19.8384 84.4040 -11.4537
v  -22.9075 84.4040 -0.0000
v  -19.8384 84.4040 11.4537
v  -11.4537 84.4040 19.8384
v  -0.0000 84.4040 22.9075
v  11.4537 84.4040 19.8384
v  19.8384 84.4040 11.4537
v  22.9075 84.4040 0.0000
v  19.8384 84.4040 -11.4537
v  11.4537 84.4040 -19.8384
v  -6.6128 74.7222 -11.4537
v  -0.0000 74.7222 -13.2256
v  -11.4537 74.7222 -6.6128
v  -13.2256 74.7222 -0.0000
v  -11.4537 74.7222 6.6128
v  -6.6128 74.7222 11.4537
v  -0.0000 74.7222 13.2256
v  6.6128 74.7222 11.4537
v  11.4537 74.7222 6.6128
v  13.2256 74.7222 0.0000
v  11.4537 74.7222 -6.6128
v  6.6128 74.7222 -11.4537
# 133 vertices

vn 0.4997 -0.8662 -0.0000
vn 0.4328 -0.8662 -0.2499
vn 0.6262 -0.6908 -0.3615
vn 0.7230 -0.6908 0.0000
vn 0.2499 -0.8662 -0.4328
vn 0.3615 -0.6908 -0.6262
vn 0.0000 -0.8662 -0.4997
vn 0.0000 -0.6908 -0.7230
vn -0.2499 -0.8662 -0.4328
vn -0.3615 -0.6908 -0.6262
vn -0.4328 -0.8662 -0.2499
vn -0.6262 -0.6908 -0.3615
vn -0.4997 -0.8662 0.0000
vn -0.7230 -0.6908 -0.0000
vn -0.4328 -0.8662 0.2499
vn -0.6262 -0.6908 0.3615
vn -0.2499 -0.8662 0.4328
vn -0.3615 -0.6908 0.6262
vn -0.0000 -0.8662 0.4997
vn -0.0000 -0.6908 0.7230
vn 0.2499 -0.8662 0.4328
vn 0.3615 -0.6908 0.6262
vn 0.4328 -0.8662 0.2499
vn 0.6262 -0.6908 0.3615
vn 0.8377 -0.2538 -0.4836
vn 0.9673 -0.2538 0.0000
vn 0.4836 -0.2538 -0.8377
vn 0.0000 -0.2538 -0.9673
vn -0.4836 -0.2538 -0.8377
vn -0.8377 -0.2538 -0.4836
vn -0.9673 -0.2538 -0.0000
vn -0.8377 -0.2538 0.4836
vn -0.4836 -0.2538 0.8377
vn -0.0000 -0.2538 0.9673
vn 0.4836 -0.2538 0.8377
vn 0.8377 -0.2538 0.4836
vn 0.8377 0.2538 -0.4836
vn 0.9673 0.2538 0.0000
vn 0.4836 0.2538 -0.8377
vn -0.0000 0.2538 -0.9673
vn -0.4836 0.2538 -0.8377
vn -0.8377 0.2538 -0.4836
vn -0.9673 0.2538 0.0000
vn -0.8377 0.2538 0.4836
vn -0.4836 0.2538 0.8377
vn -0.0000 0.2538 0.9673
vn 0.4836 0.2538 0.8377
vn 0.8377 0.2538 0.4836
vn 0.6262 0.6908 -0.3615
vn 0.7230 0.6908 0.0000
vn 0.3615 0.6908 -0.6262
vn -0.0000 0.6908 -0.7230
vn -0.3615 0.6908 -0.6262
vn -0.6262 0.6908 -0.3615
vn -0.7230 0.6908 0.0000
vn -0.6262 0.6908 0.3615
vn -0.3615 0.6908 0.6262
vn -0.0000 0.6908 0.7230
vn 0.3615 0.6908 0.6262
vn 0.6262 0.6908 0.3615
vn 0.4328 0.8662 -0.2499
vn 0.4997 0.8662 0.0000
vn 0.2499 0.8662 -0.4328
vn -0.0000 0.8662 -0.4997
vn -0.2499 0.8662 -0.4328
vn -0.4328 0.8662 -0.2499
vn -0.4997 0.8662 -0.0000
vn -0.4328 0.8662 0.2499
vn -0.2499 0.8662 0.4328
vn -0.0000 0.8662 0.4997
vn 0.2499 0.8662 0.4328
vn 0.4328 0.8662 0.2499
vn 0.0000 1.0000 0.0000
vn 0.0000 0.8474 -0.5309
vn -0.2654 0.8474 -0.4598
vn -0.4598 0.8474 -0.2654
vn -0.5309 0.8474 -0.0000
vn -0.4598 0.8474 0.2654
vn -0.2655 0.8474 0.4598
vn -0.0000 0.8474 0.5309
vn 0.2654 0.8474 0.4598
vn 0.4598 0.8474 0.2655
vn 0.5309 0.8474 0.0000
vn 0.4598 0.8474 -0.2654
vn 0.2655 0.8474 -0.4598
vn -0.4380 0.4823 -0.7586
vn 0.0000 0.4823 -0.8760
vn -0.7586 0.4823 -0.4380
vn -0.8760 0.4823 -0.0000
vn -0.7586 0.4823 0.4380
vn -0.4380 0.4823 0.7586
vn -0.0000 0.4823 0.8760
vn 0.4380 0.4823 0.7586
vn 0.7586 0.4823 0.4380
vn 0.8760 0.4823 0.0000
vn 0.7586 0.4823 -0.4380
vn 0.4380 0.4823 -0.7586
vn -0.5000 0.0000 -0.8660
vn 0.0000 0.0000 -1.0000
vn -0.8660 0.0000 -0.5000
vn -1.0000 -0.0000 -0.0000
vn -0.8660 -0.0000 0.5000
vn -0.5000 0.0000 0.8660
vn -0.0000 -0.0000 1.0000
vn 0.5000 0.0000 0.8660
vn 0.8660 0.0000 0.5000
vn 1.0000 0.0000 0.0000
vn 0.8660 -0.0000 -0.5000
vn 0.5000 0.0000 -0.8660
vn -0.4380 -0.4823 -0.7586
vn 0.0000 -0.4823 -0.8760
vn -0.7586 -0.4823 -0.4380
vn -0.8760 -0.4823 -0.0000
vn -0.7586 -0.4823 0.4380
vn -0.4380 -0.4823 0.7586
vn -0.0000 -0.4823 0.8760
vn 0.4380 -0.4823 0.7586
vn 0.7586 -0.4823 0.4380
vn 0.8760 -0.4823 0.0000
vn 0.7586 -0.4823 -0.4380
vn 0.4380 -0.4823 -0.7586
vn -0.3536 -0.7071 -0.6124
vn 0.0000 -0.7071 -0.7071
vn -0.6124 -0.7071 -0.3536
vn -0.7071 -0.7071 -0.0000
vn -0.6124 -0.7071 0.3536
vn -0.3536 -0.7071 0.6124
vn -0.0000 -0.7071 0.7071
vn 0.3536 -0.7071 0.6124
vn 0.6124 -0.7071 0.3536
vn 0.7071 -0.7071 0.0000
vn 0.6124 -0.7071 -0.3536
vn 0.3536 -0.7071 -0.6124
# 133 vertex normals

vt 0.1694 0.8183 0.0000
vt 0.5156 0.8129 0.0000
# 2 texture coords

o Player
g Player
f 1/1/1 2/1/2 3/1/3 
f 3/1/3 4/1/4 1/1/1 
f 2/1/2 5/1/5 6/1/6 
f 6/1/6 3/1/3 2/1/2 
f 5/1/5 7/1/7 8/1/8 
f 8/1/8 6/1/6 5/1/5 
f 7/1/7 9/1/9 10/1/10 
f 10/1/10 8/1/8 7/1/7 
f 9/1/9 11/1/11 12/1/12 
f 12/1/12 10/1/10 9/1/9 
f 11/1/11 13/1/13 14/1/14 
f 14/1/14 12/1/12 11/1/11 
f 13/1/13 15/1/15 16/1/16 
f 16/1/16 14/1/14 13/1/13 
f 15/1/15 17/1/17 18/1/18 
f 18/1/18 16/1/16 15/1/15 
f 17/1/17 19/1/19 20/1/20 
f 20/1/20 18/1/18 17/1/17 
f 19/1/19 21/1/21 22/1/22 
f 22/1/22 20/1/20 19/1/19 
f 21/1/21 23/1/23 24/1/24 
f 24/1/24 22/1/22 21/1/21 
f 23/1/23 1/1/1 4/1/4 
f 4/1/4 24/1/24 23/1/23 
f 4/1/4 3/1/3 25/1/25 
f 25/1/25 26/1/26 4/1/4 
f 3/1/3 6/1/6 27/1/27 
f 27/1/27 25/1/25 3/1/3 
f 6/1/6 8/1/8 28/1/28 
f 28/1/28 27/1/27 6/1/6 
f 8/1/8 10/1/10 29/1/29 
f 29/1/29 28/1/28 8/1/8 
f 10/1/10 12/1/12 30/1/30 
f 30/1/30 29/1/29 10/1/10 
f 12/1/12 14/1/14 31/1/31 
f 31/1/31 30/1/30 12/1/12 
f 14/1/14 16/1/16 32/1/32 
f 32/1/32 31/1/31 14/1/14 
f 16/1/16 18/1/18 33/1/33 
f 33/1/33 32/1/32 16/1/16 
f 18/1/18 20/1/20 34/1/34 
f 34/1/34 33/1/33 18/1/18 
f 20/1/20 22/1/22 35/1/35 
f 35/1/35 34/1/34 20/1/20 
f 22/1/22 24/1/24 36/1/36 
f 36/1/36 35/1/35 22/1/22 
f 24/1/24 4/1/4 26/1/26 
f 26/1/26 36/1/36 24/1/24 
f 26/1/26 25/1/25 37/1/37 
f 37/1/37 38/1/38 26/1/26 
f 25/1/25 27/1/27 39/1/39 
f 39/1/39 37/1/37 25/1/25 
f 27/1/27 28/1/28 40/1/40 
f 40/1/40 39/1/39 27/1/27 
f 28/1/28 29/1/29 41/1/41 
f 41/1/41 40/1/40 28/1/28 
f 29/1/29 30/1/30 42/1/42 
f 42/1/42 41/1/41 29/1/29 
f 30/1/30 31/1/31 43/1/43 
f 43/1/43 42/1/42 30/1/30 
f 31/1/31 32/1/32 44/1/44 
f 44/1/44 43/1/43 31/1/31 
f 32/1/32 33/1/33 45/1/45 
f 45/1/45 44/1/44 32/1/32 
f 33/1/33 34/1/34 46/1/46 
f 46/1/46 45/1/45 33/1/33 
f 34/1/34 35/1/35 47/1/47 
f 47/1/47 46/1/46 34/1/34 
f 35/1/35 36/1/36 48/1/48 
f 48/1/48 47/1/47 35/1/35 
f 36/1/36 26/1/26 38/1/38 
f 38/1/38 48/1/48 36/1/36 
f 38/1/38 37/1/37 49/1/49 
f 49/1/49 50/1/50 38/1/38 
f 37/1/37 39/1/39 51/1/51 
f 51/1/51 49/1/49 37/1/37 
f 39/1/39 40/1/40 52/1/52 
f 52/1/52 51/1/51 39/1/39 
f 40/1/40 41/1/41 53/1/53 
f 53/1/53 52/1/52 40/1/40 
f 41/1/41 42/1/42 54/1/54 
f 54/1/54 53/1/53 41/1/41 
f 42/1/42 43/1/43 55/1/55 
f 55/1/55 54/1/54 42/1/42 
f 43/1/43 44/1/44 56/1/56 
f 56/1/56 55/1/55 43/1/43 
f 44/1/44 45/1/45 57/1/57 
f 57/1/57 56/1/56 44/1/44 
f 45/1/45 46/1/46 58/1/58 
f 58/1/58 57/1/57 45/1/45 
f 46/1/46 47/1/47 59/1/59 
f 59/1/59 58/1/58 46/1/46 
f 47/1/47 48/1/48 60/1/60 
f 60/1/60 59/1/59 47/1/47 
f 48/1/48 38/1/38 50/1/50 
f 50/1/50 60/1/60 48/1/48 
f 50/1/50 49/1/49 61/1/61 
f 61/1/61 62/1/62 50/1/50 
f 49/1/49 51/1/51 63/1/63 
f 63/1/63 61/1/61 49/1/49 
f 51/1/51 52/1/52 64/1/64 
f 64/1/64 63/1/63 51/1/51 
f 52/1/52 53/1/53 65/1/65 
f 65/1/65 64/1/64 52/1/52 
f 53/1/53 54/1/54 66/1/66 
f 66/1/66 65/1/65 53/1/53 
f 54/1/54 55/1/55 67/1/67 
f 67/1/67 66/1/66 54/1/54 
f 55/1/55 56/1/56 68/1/68 
f 68/1/68 67/1/67 55/1/55 
f 56/1/56 57/1/57 69/1/69 
f 69/1/69 68/1/68 56/1/56 
f 57/1/57 58/1/58 70/1/70 
f 70/1/70 69/1/69 57/1/57 
f 58/1/58 59/1/59 71/1/71 
f 71/1/71 70/1/70 58/1/58 
f 59/1/59 60/1/60 72/1/72 
f 72/1/72 71/1/71 59/1/59 
f 60/1/60 50/1/50 62/1/62 
f 62/1/62 72/1/72 60/1/60 
f 73/2/73 74/2/74 75/2/75 
f 73/2/73 75/2/75 76/2/76 
f 73/2/73 76/2/76 77/2/77 
f 73/2/73 77/2/77 78/2/78 
f 73/2/73 78/2/78 79/2/79 
f 73/2/73 79/2/79 80/2/80 
f 73/2/73 80/2/80 81/2/81 
f 73/2/73 81/2/81 82/2/82 
f 73/2/73 82/2/82 83/2/83 
f 73/2/73 83/2/83 84/2/84 
f 73/2/73 84/2/84 85/2/85 
f 73/2/73 85/2/85 74/2/74 
f 86/2/86 75/2/75 74/2/74 
f 74/2/74 87/2/87 86/2/86 
f 88/2/88 76/2/76 75/2/75 
f 75/2/75 86/2/86 88/2/88 
f 89/2/89 77/2/77 76/2/76 
f 76/2/76 88/2/88 89/2/89 
f 90/2/90 78/2/78 77/2/77 
f 77/2/77 89/2/89 90/2/90 
f 91/2/91 79/2/79 78/2/78 
f 78/2/78 90/2/90 91/2/91 
f 92/2/92 80/2/80 79/2/79 
f 79/2/79 91/2/91 92/2/92 
f 93/2/93 81/2/81 80/2/80 
f 80/2/80 92/2/92 93/2/93 
f 94/2/94 82/2/82 81/2/81 
f 81/2/81 93/2/93 94/2/94 
f 95/2/95 83/2/83 82/2/82 
f 82/2/82 94/2/94 95/2/95 
f 96/2/96 84/2/84 83/2/83 
f 83/2/83 95/2/95 96/2/96 
f 97/2/97 85/2/85 84/2/84 
f 84/2/84 96/2/96 97/2/97 
f 87/2/87 74/2/74 85/2/85 
f 85/2/85 97/2/97 87/2/87 
f 98/2/98 86/2/86 87/2/87 
f 87/2/87 99/2/99 98/2/98 
f 100/2/100 88/2/88 86/2/86 
f 86/2/86 98/2/98 100/2/100 
f 101/2/101 89/2/89 88/2/88 
f 88/2/88 100/2/100 101/2/101 
f 102/2/102 90/2/90 89/2/89 
f 89/2/89 101/2/101 102/2/102 
f 103/2/103 91/2/91 90/2/90 
f 90/2/90 102/2/102 103/2/103 
f 104/2/104 92/2/92 91/2/91 
f 91/2/91 103/2/103 104/2/104 
f 105/2/105 93/2/93 92/2/92 
f 92/2/92 104/2/104 105/2/105 
f 106/2/106 94/2/94 93/2/93 
f 93/2/93 105/2/105 106/2/106 
f 107/2/107 95/2/95 94/2/94 
f 94/2/94 106/2/106 107/2/107 
f 108/2/108 96/2/96 95/2/95 
f 95/2/95 107/2/107 108/2/108 
f 109/2/109 97/2/97 96/2/96 
f 96/2/96 108/2/108 109/2/109 
f 99/2/99 87/2/87 97/2/97 
f 97/2/97 109/2/109 99/2/99 
f 110/2/110 98/2/98 99/2/99 
f 99/2/99 111/2/111 110/2/110 
f 112/2/112 100/2/100 98/2/98 
f 98/2/98 110/2/110 112/2/112 
f 113/2/113 101/2/101 100/2/100 
f 100/2/100 112/2/112 113/2/113 
f 114/2/114 102/2/102 101/2/101 
f 101/2/101 113/2/113 114/2/114 
f 115/2/115 103/2/103 102/2/102 
f 102/2/102 114/2/114 115/2/115 
f 116/2/116 104/2/104 103/2/103 
f 103/2/103 115/2/115 116/2/116 
f 117/2/117 105/2/105 104/2/104 
f 104/2/104 116/2/116 117/2/117 
f 118/2/118 106/2/106 105/2/105 
f 105/2/105 117/2/117 118/2/118 
f 119/2/119 107/2/107 106/2/106 
f 106/2/106 118/2/118 119/2/119 
f 120/2/120 108/2/108 107/2/107 
f 107/2/107 119/2/119 120/2/120 
f 121/2/121 109/2/109 108/2/108 
f 108/2/108 120/2/120 121/2/121 
f 111/2/111 99/2/99 109/2/109 
f 109/2/109 121/2/121 111/2/111 
f 122/2/122 110/2/110 111/2/111 
f 111/2/111 123/2/123 122/2/122 
f 124/2/124 112/2/112 110/2/110 
f 110/2/110 122/2/122 124/2/124 
f 125/2/125 113/2/113 112/2/112 
f 112/2/112 124/2/124 125/2/125 
f 126/2/126 114/2/114 113/2/113 
f 113/2/113 125/2/125 126/2/126 
f 127/2/127 115/2/115 114/2/114 
f 114/2/114 126/2/126 127/2/127 
f 128/2/128 116/2/116 115/2/115 
f 115/2/115 127/2/127 128/2/128 
f 129/2/129 117/2/117 116/2/116 
f 116/2/116 128/2/128 129/2/129 
f 130/2/130 118/2/118 117/2/117 
f 117/2/117 129/2/129 130/2/130 
f 131/2/131 119/2/119 118/2/118 
f 118/2/118 130/2/130 131/2/131 
f 132/2/132 120/2/120 119/2/119 
f 119/2/119 131/2/131 132/2/132 
f 133/2/133 121/2/121 120/2/120 
f 120/2/120 132/2/132 133/2/133 
f 123/2/123 111/2/111 121/2/121 
f 121/2/121 133/2/133 123/2/123 
# 228 faces

